<svg data-v-0dd9719b="" version="1.0" xmlns="http://www.w3.org/2000/svg" xmlns:xlink="http://www.w3.org/1999/xlink" width="100%" height="100%" viewBox="0 0 340.000000 250.000000" preserveAspectRatio="xMidYMid meet" color-interpolation-filters="sRGB" style="margin: auto;"> <rect data-v-0dd9719b="" x="0" y="0" width="100%" height="100%" fill="#fff" fill-opacity="1" class="background"></rect> <rect data-v-0dd9719b="" x="0" y="0" width="100%" height="100%" fill="url(#watermark)" fill-opacity="1" class="watermarklayer"></rect> <g data-v-0dd9719b="" fill="#333" class="icon-text-wrapper icon-svg-group iconsvg" transform="translate(48.028045654296875,101.21374893188477)"><g class="iconsvg-imagesvg" transform="translate(0,1.0305328369140625)"><g><rect fill="#333" fill-opacity="0" stroke-width="2" x="0" y="0" width="60" height="45.51143474798043" class="image-rect"></rect> <svg x="0" y="0" width="60" height="45.51143474798043" filtersec="colorsb8139802241" class="image-svg-svg primary" style="overflow: visible;"><svg xmlns="http://www.w3.org/2000/svg" viewBox="-0.02030702866613865 0 129.03985595703125 97.87999725341797"><title>资源 54</title><path d="M.22 97.41l59.05-71.28.36.17a10.06 10.06 0 0 1 .11 1.09v69.12c0 1-.36 1.33-1.35 1.33h-57c-.34 0-.68-.07-1-.1z" fill="#f93d89"></path><path d="M69.36 71.75c0-.52-.08-.89-.08-1.26V1.58c0-1.52.06-1.58 1.63-1.58h56.47c.41 0 .81.05 1.23.08C128.47 1 70.62 71 69.36 71.75z" fill="#fce706"></path><path d="M99.12 97.82H70.78c-1.45 0-1.58-.16-1.49-1.57a29.71 29.71 0 0 1 6.15-16.72A28.59 28.59 0 0 1 91.21 69c10.61-2.71 20.09-.43 28.24 6.92a28 28 0 0 1 8.78 15.34 46.9 46.9 0 0 1 .74 5c.16 1.54 0 1.62-1.5 1.62z" fill="#922dab"></path><path d="M29.94 0h28.34c1.32 0 1.53.2 1.46 1.44A29.71 29.71 0 0 1 53 19.11a28.56 28.56 0 0 1-17.59 10.35c-10.28 1.77-19.29-.93-26.73-8.28A29.36 29.36 0 0 1 0 1.72C-.08.1 0 0 1.69 0z" fill="#a2c509"></path></svg></svg> <!----></g></g> <g transform="translate(67,0)"><g data-gra="path-name" fill-rule="" class="tp-name iconsvg-namesvg" transform="translate(0,0)"><g transform="scale(1)"><g><path d="M12.85 2.88L12.85 2.88 11.7 2.88Q8.17 2.77 8.17-1.58L8.17-1.58 8.14-5.62 8.17-10.98 1.8-10.87 1.66-16.56Q4.03-16.56 8.21-16.6L8.21-16.6 8.35-27.4 13.72-27.54 13.64-16.74 18.58-16.92Q28.44-17.17 33.88-17.24L33.88-17.24 34.31-11.63Q32.29-11.56 20.77-11.3L20.77-11.3Q28.26-7.13 34.49-1.69L34.49-1.69 29.81 2.38Q23.11-3.6 15.3-8.35L15.3-8.35 18.18-11.27 13.64-11.16 13.61-4.1Q13.64-3.28 14.33-3.28L14.33-3.28Q15.95-3.28 20.09-5.26L20.09-5.26 21.2 0.32Q19.66 1.3 17.26 2.09 14.87 2.88 12.85 2.88ZM17.75-16.96L17.75-16.96 14.54-21.56Q21.56-23.15 27.22-27.14L27.22-27.14 31.32-23.11Q25.42-18.76 17.75-16.96ZM48.85-6.7L48.89-5.51 59.18-5.58Q59.04-6.8 58.54-6.91L58.54-6.91Q58.1-7.13 57.46-7.13L57.46-7.13 57.06-7.09 56.48-7.09Q52.16-7.09 48.85-6.7L48.85-6.7ZM48.92-2.63L48.92-1.15Q51.37-1.15 59.04-1.33L59.04-1.33 59.15-2.74 48.92-2.63ZM43.67 2.66L43.67 2.66 43.7-0.47Q43.7-3.1 43.56-5.76L43.56-5.76Q42.41-4.68 41.36-4.18L41.36-4.18 37.76-7.92Q41.04-9.65 43.7-12.35L43.7-12.35 38.88-12.28 38.74-16.09Q41.98-16.13 46.55-16.24L46.55-16.24Q46.94-16.92 47.3-17.53L47.3-17.53 41.54-17.32 41.36-21.17 49.14-21.38Q49.46-22.25 49.68-22.9L49.68-22.9 39.89-22.68 39.71-26.32Q44.28-26.39 50.58-26.6L50.58-26.6Q50.76-27.29 50.87-28.01L50.87-28.01 56.38-27.9 56.2-26.68 67.21-27 67.61-23.29Q65.77-23.22 55.26-23.04L55.26-23.04Q55.08-22.25 54.83-21.6L54.83-21.6 66.74-21.96 67.14-18.11Q65.3-18 53.86-17.75L53.86-17.75 53.32-17.75 52.67-16.42 68.87-16.88 69.3-12.96Q68.15-12.96 64.19-12.85L64.19-12.85Q67.61-9.97 70.2-6.73L70.2-6.73 65.38-4.1Q64.84-5.04 64.19-5.58L64.19-5.58Q64.19-2.02 63.97 2.41L63.97 2.41Q52.56 2.66 43.67 2.66ZM48.92-10.37L48.92-10.37Q53.78-10.91 56.74-10.91L56.74-10.91Q58.32-10.91 59.58-10.84L59.58-10.84Q58.64-11.66 57.49-12.67L57.49-12.67Q56.56-12.67 50.58-12.49L50.58-12.49Q49.75-11.45 48.92-10.37ZM92.88-0.36L92.84 2.66 87.19 2.38Q87.48-0.86 87.48-7.96L87.48-7.96 87.44-10.91Q85.36-10.76 81.29-10.62L81.29-10.62Q81.4-7.49 81.4-2.2L81.4-2.2 81.4 0.5 75.67 0.18Q76.03-3.6 76.03-9.43L76.03-9.43Q76.03-11.09 75.92-16.63L75.92-16.63 81.22-16.88 81.25-15.91 87.41-16.13Q87.41-17.75 87.37-19.01L87.37-19.01Q81.65-18.83 74.05-18.61L74.05-18.61 73.91-23.58Q78.7-23.69 86.87-23.9L86.87-23.9Q86.58-25.27 85.21-27.04L85.21-27.04 90.43-28.01Q91.98-25.96 92.48-24.08L92.48-24.08Q100.51-24.44 105.44-24.59L105.44-24.59 105.8-19.66Q100.08-19.44 92.74-19.12L92.74-19.12Q92.74-18.25 92.74-16.24L92.74-16.24 98.57-16.31Q100.8-16.31 101.9-16 103-15.7 103.9-14.54 104.8-13.39 104.8-10.94L104.8-10.94Q104.8-10.91 104.8-9.97 104.8-9.04 104.8-6.41 104.8-3.78 104.22-2.27L104.22-2.27Q103.32 0.72 99.58 0.72L99.58 0.72Q99.36 0.72 98.53 0.68 97.7 0.65 95.83 0.25L95.83 0.25 95.11-5.54Q96.41-5.18 97.63-5.18L97.63-5.18Q98.6-5.18 98.96-5.69 99.32-6.19 99.32-7.78L99.32-7.78 99.25-9.58Q99.18-11.2 97.7-11.2L97.7-11.2Q96.95-11.2 92.77-11.05L92.77-11.05Q92.88-5.11 92.88-0.36L92.88-0.36ZM128.59-5.94L128.59-5.94Q128.63-3.71 128.63-2.2L128.63-2.2Q133.56-2.2 137.45-2.23L137.45-2.23Q137.7-3.49 137.66-4.86L137.66-4.86Q137.66-6.12 136.73-6.26L136.73-6.26Q135.72-6.52 128.59-5.94ZM142.16 2.63Q134.53 2.63 123.88 2.95L123.88 2.95 123.91-0.43Q123.91-5.62 123.62-10.69L123.62-10.69 128.41-11.84 128.56-10.66Q134.03-10.91 138.35-10.91L138.35-10.91Q142.52-10.66 142.52-6.16L142.52-6.16Q142.52-2.48 142.16 2.63L142.16 2.63ZM125.78-12.28L125.78-12.28 122.29-15.98Q126.5-18.32 127.84-22.14L127.84-22.14 122.94-21.89 122.69-26.78Q131.54-27.32 137.12-27.32L137.12-27.32Q138.02-27.32 139.32-27.14 140.62-26.96 141.66-25.63L141.66-25.63Q142.34-24.41 142.34-22.46L142.34-22.46Q142.34-18.32 142.18-16.58 142.02-14.83 141.53-13.99 141.05-13.14 140.11-12.74 139.18-12.35 137.77-12.35L137.77-12.35Q136.37-12.35 132.91-12.89L132.91-12.89 132.84-18.32Q135.68-17.6 136.55-17.6L136.55-17.6Q137.3-17.6 137.3-18.79L137.3-18.79 137.3-21.02Q137.3-22.25 135.65-22.39L135.65-22.39Q134.06-22.39 132.95-22.36L132.95-22.36Q131.54-15.7 125.78-12.28ZM115.96-4.86L115.96-4.86Q114.98-4.86 113.69-4.9L113.69-4.9Q110.12-5.54 110.12-8.6L110.12-8.6Q110.12-10.48 113.15-13.86L113.15-13.86Q109.22-14.69 109.22-17.46L109.22-17.46Q109.22-17.86 109.33-18.32L109.33-18.32Q110.09-22.21 114.73-27.83L114.73-27.83 118.8-25.67Q115.38-22.07 114.59-19.58L114.59-19.58Q114.52-19.37 114.52-19.12L114.52-19.12Q114.52-19.01 114.66-18.83L114.66-18.83Q114.8-18.47 116.24-18.43L116.24-18.43Q117.68-20.38 119.2-22.1L119.2-22.1 123.12-19.76Q118.37-14.26 116.21-10.44L116.21-10.44Q116.14-10.22 116.14-10.04L116.14-10.04Q116.14-9.68 117.18-9.68L117.18-9.68Q118.69-9.68 122.22-10.22L122.22-10.22 121.86-5.65Q119.05-4.86 115.96-4.86ZM122.11-3.85L122.11-3.85 122.29 1.22Q117.61 2.27 110.02 2.95L110.02 2.95 109.22-2.3Q116.17-2.52 122.11-3.85ZM150.8-16.88L150.8-16.88Q149.72-16.88 148.79-16.97 147.85-17.06 147.17-17.71 146.48-18.36 146.32-19.66 146.16-20.95 146.09-28.01L146.09-28.01 150.34-28.01 150.41-26.17Q156.2-26.75 159.37-27.65L159.37-27.65 161.1-24.26Q157.1-22.82 150.66-22.14L150.66-22.14Q150.73-21.6 150.84-21.38L150.84-21.38Q150.98-20.88 152.14-20.88L152.14-20.88Q153.5-20.88 161.14-21.85L161.14-21.85 161.1-17.53Q153.54-16.88 150.8-16.88ZM165.67 2.77L165.67 2.77 161.17 0.58Q165.02-3.35 166.32-5.98L166.32-5.98 162.47-5.98Q162.54-19.58 162.58-20.84L162.58-20.84Q164.95-21.06 166.86-21.17L166.86-21.17Q167.15-22.39 167.22-23.54L167.22-23.54 162.76-23.47 162.68-27.97 165.28-27.97Q167.72-27.97 171.36-28.03 175-28.08 177.59-28.12L177.59-28.12 177.8-23.69 171.9-23.65Q171.79-22.36 171.61-21.28L171.61-21.28Q173.16-21.28 174.56-21.13 175.97-20.99 176.8-19.69L176.8-19.69Q177.84-18.11 177.84-13.14L177.84-13.14Q177.84-7.49 177.66-5.51L177.66-5.51 173.16-5.87Q173.34-11.23 173.34-12.13L173.34-12.13Q173.34-14.44 173.07-15.71 172.8-16.99 170.68-16.99L170.68-16.99Q169.74-16.99 166.93-16.88L166.93-16.88 167.08-7.45Q168.08-9.94 168.08-13.07L168.08-13.07Q168.08-14.26 168.01-15.05L168.01-15.05 172.15-14.9Q172.22-13.5 172.22-12.53L172.22-12.53Q172.22-7.27 170.51-3.74 168.8-0.22 165.67 2.77ZM178.27-0.22L175.1 2.77Q172.55-0.5 169.92-1.76L169.92-1.76 172.33-4.93Q175.93-3.64 178.27-0.22L178.27-0.22ZM156.78-0.9L156.78 2.92 151.45 2.81 151.6-0.65Q150.16 1.33 147.92 2.16L147.92 2.16 145.69-1.66Q149.44-3.56 151.2-5.98L151.2-5.98 145.98-5.9 145.87-10.19Q148.32-10.19 151.45-10.22L151.45-10.22 151.38-11.66Q149.29-11.52 147.17-11.48L147.17-11.48 146.27-15.34Q153-15.66 159.84-16.56L159.84-16.56 161.24-12.85Q159.12-12.46 156.6-12.2L156.6-12.2 156.67-10.3 161.17-10.37 161.35-6.12 156.74-6.01 156.78-5.47Q158.65-4.75 161.93-2.92L161.93-2.92 159.16 0.86Q157.61-0.47 156.78-0.9L156.78-0.9Z" transform="translate(-1.6600000858306885, 28.1200008392334)"></path></g> <!----> <!----> <!----> <!----> <!----> <!----> <!----></g></g> <g data-gra="path-slogan" fill-rule="" class="tp-slogan iconsvg-slogansvg" fill="#333" transform="translate(-0.33582305908203125,37.07000160217285)"><rect width="0"></rect> <rect x="180.28164672851562" width="0"></rect> <g transform="translate(0,0)"><g transform="scale(1)"><path d="M7.17-6.09L7.17-6.09L6.09-6.09Q6-7.73 3.94-7.83L3.94-7.83Q2.02-7.78 2.02-6.33L2.02-6.33Q2.02-5.39 3.05-5.25L3.05-5.25L5.48-4.69Q7.41-4.22 7.41-2.34L7.41-2.34Q7.36 0.05 4.03 0.14L4.03 0.14Q2.20 0.14 1.45-0.61L1.45-0.61Q0.52-1.31 0.56-2.77L0.56-2.77L1.69-2.77Q1.73-0.80 4.03-0.75L4.03-0.75Q6.28-0.80 6.33-2.20L6.33-2.20Q6.52-3.38 4.45-3.75L4.45-3.75L2.67-4.13Q0.84-4.64 0.84-6.19L0.84-6.19Q0.98-8.72 3.84-8.81L3.84-8.81Q7.08-8.81 7.17-6.09ZM10.03-5.06L14.53-5.06L14.53-8.58L15.70-8.58L15.70 0L14.53 0L14.53-3.98L10.03-3.98L10.03 0L8.86 0L8.86-8.58L10.03-8.58L10.03-5.06ZM23.16 0L22.31-2.48L18.84-2.48L17.95 0L16.78 0L20.02-8.58L21.33-8.58L24.42 0L23.16 0ZM20.58-7.31L19.22-3.52L21.89-3.52L20.63-7.31L20.58-7.31ZM32.25-4.27L32.25-4.27Q32.06-7.64 29.25-7.83L29.25-7.83Q26.39-7.69 26.25-4.27L26.25-4.27Q26.39-0.94 29.25-0.80L29.25-0.80Q32.06-0.98 32.25-4.27ZM33.42-4.27L33.42-4.27Q33.14 0 29.25 0.14L29.25 0.14Q25.31 0 25.03-4.27L25.03-4.27Q25.27-8.72 29.25-8.81L29.25-8.81Q33.14-8.67 33.42-4.27ZM41.72-8.58L38.48-3.47L38.48 0L37.31 0L37.31-3.47L34.08-8.58L35.44-8.58L37.88-4.45L40.36-8.58L41.72-8.58ZM42.94-8.58L44.11-8.58L44.11 0L42.94 0L42.94-8.58ZM47.48-8.58L51.80-1.64L51.80-8.58L52.92-8.58L52.92 0L51.61 0L47.25-6.94L47.20-6.94L47.20 0L46.08 0L46.08-8.58L47.48-8.58ZM61.13-3.61L58.50-3.61L58.50-4.59L62.25-4.59L62.25 0L61.50 0L61.22-1.08Q60.23 0.09 58.41 0.14L58.41 0.14Q56.67 0.14 55.73-0.75L55.73-0.75Q54.33-2.06 54.38-4.36L54.38-4.36Q54.70-8.63 58.45-8.81L58.45-8.81Q61.64-8.63 62.11-6L62.11-6L60.98-6Q60.52-7.78 58.41-7.83L58.41-7.83Q55.73-7.64 55.59-4.31L55.59-4.31Q55.59-0.75 58.45-0.75L58.45-0.75Q59.48-0.75 60.23-1.31L60.23-1.31Q61.17-2.06 61.13-3.61L61.13-3.61ZM64.83 0L64.17 0L64.17-1.27L65.44-1.27L65.44-0.09Q65.44 1.45 64.17 1.69L64.17 1.69L64.17 1.08Q64.83 0.98 64.83 0L64.83 0ZM77.86-6.05L77.86-6.05L76.73-6.05Q76.31-7.78 74.34-7.83L74.34-7.83Q71.63-7.69 71.53-4.36L71.53-4.36Q71.53-0.80 74.39-0.80L74.39-0.80Q76.36-0.84 76.83-3.19L76.83-3.19L77.95-3.19Q77.44 0.05 74.16 0.14L74.16 0.14Q70.41 0 70.31-4.31L70.31-4.31Q70.50-8.63 74.34-8.81L74.34-8.81Q77.39-8.72 77.86-6.05ZM80.48-5.06L84.98-5.06L84.98-8.58L86.16-8.58L86.16 0L84.98 0L84.98-3.98L80.48-3.98L80.48 0L79.31 0L79.31-8.58L80.48-8.58L80.48-5.06ZM93.61 0L92.77-2.48L89.30-2.48L88.41 0L87.23 0L90.47-8.58L91.78-8.58L94.88 0L93.61 0ZM91.03-7.31L89.67-3.52L92.34-3.52L91.08-7.31L91.03-7.31ZM97.31-8.58L101.63-1.64L101.63-8.58L102.75-8.58L102.75 0L101.44 0L97.08-6.94L97.03-6.94L97.03 0L95.91 0L95.91-8.58L97.31-8.58ZM110.95-3.61L108.33-3.61L108.33-4.59L112.08-4.59L112.08 0L111.33 0L111.05-1.08Q110.06 0.09 108.23 0.14L108.23 0.14Q106.50 0.14 105.56-0.75L105.56-0.75Q104.16-2.06 104.20-4.36L104.20-4.36Q104.53-8.63 108.28-8.81L108.28-8.81Q111.47-8.63 111.94-6L111.94-6L110.81-6Q110.34-7.78 108.23-7.83L108.23-7.83Q105.56-7.64 105.42-4.31L105.42-4.31Q105.42-0.75 108.28-0.75L108.28-0.75Q109.31-0.75 110.06-1.31L110.06-1.31Q111-2.06 110.95-3.61L110.95-3.61ZM121.03-6.05L121.03-6.05L119.91-6.05Q119.48-7.78 117.52-7.83L117.52-7.83Q114.80-7.69 114.70-4.36L114.70-4.36Q114.70-0.80 117.56-0.80L117.56-0.80Q119.53-0.84 120-3.19L120-3.19L121.13-3.19Q120.61 0.05 117.33 0.14L117.33 0.14Q113.58 0 113.48-4.31L113.48-4.31Q113.67-8.63 117.52-8.81L117.52-8.81Q120.56-8.72 121.03-6.05ZM123.66-5.06L128.16-5.06L128.16-8.58L129.33-8.58L129.33 0L128.16 0L128.16-3.98L123.66-3.98L123.66 0L122.48 0L122.48-8.58L123.66-8.58L123.66-5.06ZM136.78-3.19L136.78-8.58L137.95-8.58L137.95-3.05Q137.81 0.05 134.44 0.14L134.44 0.14Q131.30 0.05 131.16-2.86L131.16-2.86L131.16-8.58L132.33-8.58L132.33-3.19Q132.38-0.84 134.48-0.80L134.48-0.80Q136.78-0.84 136.78-3.19L136.78-3.19ZM141.14-8.58L145.45-1.64L145.45-8.58L146.58-8.58L146.58 0L145.27 0L140.91-6.94L140.86-6.94L140.86 0L139.73 0L139.73-8.58L141.14-8.58ZM158.86-6.05L158.86-6.05L157.73-6.05Q157.31-7.78 155.34-7.83L155.34-7.83Q152.63-7.69 152.53-4.36L152.53-4.36Q152.53-0.80 155.39-0.80L155.39-0.80Q157.36-0.84 157.83-3.19L157.83-3.19L158.95-3.19Q158.44 0.05 155.16 0.14L155.16 0.14Q151.41 0 151.31-4.31L151.31-4.31Q151.50-8.63 155.34-8.81L155.34-8.81Q158.39-8.72 158.86-6.05ZM160.50-8.58L161.67-8.58L161.67 0L160.50 0L160.50-8.58ZM165.84-7.59L162.94-7.59L162.94-8.58L169.88-8.58L169.88-7.59L166.97-7.59L166.97 0L165.84 0L165.84-7.59ZM177.84-8.58L174.61-3.47L174.61 0L173.44 0L173.44-3.47L170.20-8.58L171.56-8.58L174-4.45L176.48-8.58L177.84-8.58Z" transform="translate(-0.5602678571428572, 8.8125)"></path></g></g></g></g></g><defs v-gra="od"></defs></svg>